#!OML:ASF E:\acrobat2\Project_11_07_03\Capture day 1\Session 1\Acrobat.ASF
:FULLY-SPECIFIED
:DEGREES
757
root 11.2324 14.1944 -12.9351 185.04 0.905271 -176.164
lowerback -6.36175 -0.395451 1.9406
upperback -5.99379 -0.0916264 -1.35669
thorax -2.63824 0.0846748 -2.50218
lowerneck 0.815056 -1.71665 2.79727
upperneck 3.28375 -2.1928 4.39978
head 0.890009 -0.926275 0.876342
rclavicle -3.37934e-015 2.94201e-014
rhumerus 87.5172 -39.3722 -47.9288
rradius 30.2703
rwrist -4.43964
rhand -19.7752 318.306
rfingers 7.12502
rthumb 6.55685 -431.573
lclavicle -3.37934e-015 2.94201e-014
lhumerus -39.0208 4.2306 68.1561
lradius 9.60616
lwrist 1.05917
lhand -11.3359 -3.34733
lfingers 7.12502
lthumb 14.6969 26.1117
rfemur 23.7196 49.1055 -0.945049
rtibia -6.06912
rfoot -63.3644 -19.8789
rtoes 13.3626
lfemur 22.1207 -51.509 12.2733
ltibia -9.91899
lfoot -66.2191 -20.877
ltoes 53.6617
758
root 11.2303 14.1949 -12.9418 185.001 0.863021 -176.112
lowerback -6.28598 -0.401531 2.00515
upperback -6.01021 -0.101104 -1.36933
thorax -2.69883 0.0765009 -2.55208
lowerneck 1.06844 -1.67955 2.67244
upperneck 3.09819 -2.12345 4.57799
head 0.793667 -0.898003 0.954364
rclavicle -1.59028e-015 -2.94201e-014
rhumerus 86.2266 -40.0996 -45.9757
rradius 30.5485
rwrist -5.95868
rhand -19.9083 318.155
rfingers 7.12502
rthumb 6.42833 -431.727
lclavicle -1.59028e-015 -2.94201e-014
lhumerus -38.9304 4.17376 68.177
lradius 9.52252
lwrist 0.993534
lhand -11.2694 -3.07802
lfingers 7.12502
lthumb 14.7609 26.3764
rfemur 23.5975 48.7829 -1.06024
rtibia -6.04049
rfoot -63.1492 -19.6679
rtoes 13.4974
lfemur 22.3086 -51.7223 12.1236
ltibia -9.92067
lfoot -66.4416 -20.7204
ltoes 53.5796
759
root 11.2299 14.1945 -12.9458 184.991 0.848185 -176.051
lowerback -6.12731 -0.400091 2.0322
upperback -6.10825 -0.0886227 -1.35251
thorax -2.88912 0.0823096 -2.55028
lowerneck 1.18334 -1.6581 2.55659
upperneck 3.18248 -2.09119 4.65109
head 0.802679 -0.8798 0.997227
rclavicle -2.38542e-015 3.02153e-014
rhumerus 86.1471 -39.9428 -45.9799
rradius 30.5062
rwrist -5.67437
rhand -19.9993 318.23
rfingers 7.12502
rthumb 6.34051 -431.655
lclavicle -2.38542e-015 3.02153e-014
lhumerus -38.9964 4.06438 68.2169
lradius 9.46184
lwrist 0.95778
lhand -11.194 -2.81836
lfingers 7.12502
lthumb 14.8336 26.6307
rfemur 23.4622 48.5724 -1.14812
rtibia -6.02597
rfoot -62.8507 -19.8391
rtoes 12.8301
lfemur 22.4669 -51.9332 12.0224
ltibia -9.91734
lfoot -66.6793 -20.6419
ltoes 53.5127
760
root 11.2304 14.1941 -12.9471 185.028 0.850528 -175.961
lowerback -6.05853 -0.37501 2.09076
upperback -6.17796 -0.0483667 -1.33135
thorax -2.99855 0.101637 -2.56062
lowerneck 1.3027 -1.68667 2.35845
upperneck 3.17275 -2.12351 4.85193
head 0.785589 -0.895702 1.09364
rclavicle 3.37934e-015 -4.77083e-015
rhumerus 89.5724 -37.6528 -51.4631
rradius 29.6377
rwrist -0.737887
rhand -20.3673 319.019
rfingers 7.12502
rthumb 5.98523 -430.876
lclavicle 3.37934e-015 -4.77083e-015
lhumerus -39.0452 3.93805 68.2719
lradius 9.48194
lwrist 0.998865
lhand -11.0176 -2.60564
lfingers 7.12502
lthumb 15.0036 26.8308
rfemur 23.246 48.4297 -1.2435
rtibia -6.00165
rfoot -62.601 -20.0348
rtoes 12.272
lfemur 22.3768 -51.8739 12.2161
ltibia -9.91384
lfoot -66.7671 -20.2596
ltoes 53.3044
761
root 11.2304 14.1951 -12.9486 185.088 0.864154 -175.996
lowerback -6.08305 -0.353559 2.04702
upperback -6.20231 -0.0142198 -1.36418
thorax -3.00812 0.121364 -2.56912
lowerneck 1.58633 -1.69796 2.0786
upperneck 2.85027 -2.11449 5.24758
head 0.647733 -0.900998 1.26675
rclavicle 0 4.77083e-015
rhumerus 85.1823 -39.9831 -44.8892
rradius 30.7398
rwrist -6.28125
rhand -20.4534 318.222
rfingers 7.12502
rthumb 5.90213 -431.676
lclavicle 0 4.77083e-015
lhumerus -39.1032 3.81696 68.2773
lradius 9.67711
lwrist 1.08109
lhand -10.7511 -2.42285
lfingers 7.12502
lthumb 15.2603 26.9942
rfemur 22.8712 48.0859 -1.66883
rtibia -5.97661
rfoot -62.278 -19.6863
rtoes 12.8556
lfemur 22.446 -52.0575 12.0606
ltibia -9.88157
lfoot -67.2526 -19.4532
ltoes 52.7961
762
root 11.2306 14.1959 -12.9512 185.14 0.871061 -175.998
lowerback -6.10805 -0.339379 2.03122
upperback -6.20665 0.00629841 -1.38658
thorax -2.99748 0.132611 -2.58277
lowerneck 1.70149 -1.70264 1.9807
upperneck 2.66432 -2.10823 5.42047
head 0.574685 -0.903471 1.33876
rclavicle -7.15625e-015 3.33958e-014
rhumerus 85.5493 -39.5945 -45.9037
rradius 30.859
rwrist -5.40086
rhand -20.5218 318.266
rfingers 7.12502
rthumb 5.83608 -431.634
lclavicle -7.15625e-015 3.33958e-014
lhumerus -39.0852 3.75396 68.3051
lradius 9.77202
lwrist 1.09801
lhand -10.6614 -2.39821
lfingers 7.12502
lthumb 15.3467 27.0123
rfemur 22.5012 47.6676 -2.07329
rtibia -5.96433
rfoot -61.8825 -19.3151
rtoes 13.3591
lfemur 22.6212 -52.3628 11.8329
ltibia -9.8566
lfoot -67.7704 -19.0248
ltoes 52.4644
763
root 11.2333 14.1959 -12.952 185.186 0.896442 -175.66
lowerback -6.07221 -0.312255 2.31729
upperback -6.20841 0.0310982 -1.30576
thorax -3.02022 0.134204 -2.65918
lowerneck 1.45701 -1.73545 2.11772
upperneck 2.86047 -2.1713 5.23102
head 0.672725 -0.927499 1.25395
rclavicle 7.7526e-015 -2.38542e-014
rhumerus 85.6137 -39.4249 -46.2065
rradius 30.9322
rwrist -5.26125
rhand -20.7303 318.208
rfingers 7.12502
rthumb 5.63472 -431.697
lclavicle 7.7526e-015 -2.38542e-014
lhumerus -39.0879 3.73867 68.3231
lradius 9.84094
lwrist 1.05155
lhand -10.6466 -2.40432
lfingers 7.12502
lthumb 15.3609 27.0051
rfemur 22.3972 47.7741 -1.69632
rtibia -5.87582
rfoot -61.8337 -19.6741
rtoes 12.3777
lfemur 22.446 -52.1311 12.445
ltibia -9.90539
lfoot -67.6358 -18.9916
ltoes 52.4112
